<svg id="Layer_2" data-name="Layer 2" xmlns="http://www.w3.org/2000/svg" width="22" height="22" viewBox="0 0 22 22">
  <g id="invisible_box" data-name="invisible box">
    <rect id="Rectangle_14" data-name="Rectangle 14" width="22" height="22" fill="none"/>
  </g>
  <g id="icons_Q2" data-name="icons Q2" transform="translate(1.792 0.896)">
    <path id="Path_13" data-name="Path 13" d="M21.648,14.273,20.215,12.84a2.016,2.016,0,0,1-.538-1.3V8.719A6.414,6.414,0,0,0,12.958,2,6.368,6.368,0,0,0,6.24,8.719v3.135a1.165,1.165,0,0,1-.314.761L4.269,14.273A.9.9,0,0,0,4,14.9v3.225a.9.9,0,0,0,.9.9H9.868a3.135,3.135,0,0,0,6.181,0h4.972a.9.9,0,0,0,.9-.9V14.9A.9.9,0,0,0,21.648,14.273Z" transform="translate(-4 -2)" fill="#fff"/>
  </g>
</svg>
